<svg width="1280" height="722" viewBox="0 0 1280 722" fill="none" xmlns="http://www.w3.org/2000/svg">
<path d="M1316.98 130.028C1308.35 114.705 1296.23 101.631 1281.6 91.863C1266.98 82.0953 1250.26 75.9088 1232.8 73.8046C1215.34 71.7003 1197.63 73.7374 1181.1 79.751C1164.58 85.7645 1149.7 95.5853 1137.67 108.418C1125.65 121.251 1116.81 136.736 1111.88 153.618C1106.96 170.5 1106.07 188.306 1109.31 205.593C1112.54 222.88 1119.8 239.162 1130.5 253.122C1141.19 267.081 1155.03 278.326 1170.88 285.945L1191.76 242.508C1182.73 238.168 1174.85 231.762 1168.75 223.809C1162.66 215.856 1158.52 206.58 1156.68 196.732C1154.84 186.883 1155.34 176.74 1158.15 167.122C1160.96 157.504 1165.99 148.683 1172.84 141.372C1179.69 134.061 1188.17 128.466 1197.58 125.04C1207 121.614 1217.09 120.453 1227.03 121.652C1236.98 122.851 1246.51 126.375 1254.84 131.94C1263.17 137.505 1270.07 144.953 1274.99 153.682L1316.98 130.028Z" fill="#6070FF"/>
<path d="M179.633 705.783C181.955 703.017 183.593 699.743 184.415 696.226C185.236 692.709 185.218 689.048 184.362 685.539C183.505 682.031 181.835 678.773 179.485 676.031C177.136 673.288 174.173 671.137 170.838 669.752C167.502 668.367 163.888 667.787 160.286 668.059C156.685 668.331 153.198 669.447 150.109 671.317C147.019 673.187 144.413 675.758 142.502 678.823C140.591 681.887 139.428 685.358 139.108 688.956L148.966 689.833C149.148 687.783 149.811 685.805 150.9 684.06C151.988 682.314 153.473 680.849 155.233 679.784C156.993 678.718 158.98 678.082 161.031 677.928C163.083 677.773 165.142 678.103 167.043 678.892C168.943 679.681 170.63 680.907 171.969 682.469C173.307 684.032 174.259 685.887 174.747 687.886C175.235 689.885 175.245 691.971 174.777 693.974C174.309 695.978 173.376 697.843 172.053 699.419L179.633 705.783Z" fill="#EBEBFF"/>
<rect x="1045.4" y="102" width="204" height="47" transform="rotate(-30 1045.4 102)" fill="#EBEBFF"/>
<rect x="630.838" y="631" width="161.407" height="28.875" transform="rotate(23.34 630.838 631)" fill="#EBEBFF"/>
<rect width="56.0124" height="10.0203" transform="matrix(0.977401 -0.211395 -0.211395 -0.977401 592.652 142.572)" fill="#6070FF"/>
<rect x="-66" y="99.9232" width="108.669" height="19.4403" transform="rotate(-46.1415 -66 99.9232)" fill="#EBEBFF"/>
<circle cx="761.898" cy="662.5" r="23.5" fill="#6070FF"/>
<circle cx="618.898" cy="149.5" r="11.5" fill="#EBEBFF"/>
<circle cx="1110.9" cy="562.5" r="37" fill="white" stroke="#EBEBFF"/>
<circle cx="19.5" cy="19.5" r="19" transform="matrix(1 0 0 -1 864.398 73)" fill="white" stroke="#EBEBFF"/>
<circle cx="285.898" cy="53.5" r="7" fill="white" stroke="#EBEBFF"/>
<path d="M-19.6174 73.0741C-23.808 82.8892 -23.9279 93.967 -19.9508 103.87C-15.9737 113.774 -8.22529 121.692 1.5898 125.883C11.4049 130.073 22.4827 130.193 32.3862 126.216C42.2897 122.239 50.2077 114.49 54.3983 104.675L-19.6174 73.0741Z" fill="#6070FF"/>
<path d="M154.554 650C154.219 654.881 155.838 659.695 159.053 663.383C162.268 667.071 166.816 669.331 171.698 669.666C176.579 670 181.393 668.381 185.081 665.166C188.769 661.951 191.029 657.403 191.363 652.521L154.554 650Z" fill="#6070FF"/>
</svg>
